<svg width="909" height="223" viewBox="0 0 909 223" fill="none" xmlns="http://www.w3.org/2000/svg">
<g clip-path="url(#clip0_21_8)">
<rect width="909" height="223" fill="none"/>
<path d="M101.281 0.00928554C102.638 -0.0433196 103.835 0.120831 105.085 0.675403C108.276 2.09257 109.86 5.16205 111.049 8.25815C111.621 7.24281 112.23 6.29022 112.986 5.39846C114.642 3.44256 116.966 1.93729 119.575 1.77441C121.608 1.64765 123.548 2.37525 125.066 3.71827C127.771 6.11275 128.579 9.49659 128.755 12.9597C129.32 12.2126 129.932 11.5055 130.589 10.8383C132.597 8.78801 135.272 7.20542 138.215 7.21936C140.241 7.22951 142.124 8.01288 143.536 9.46871C146.074 12.0831 146.268 15.5069 146.204 18.9395C147.043 18.2646 147.878 17.6124 148.832 17.1066C151.163 15.8739 153.938 15.2356 156.508 16.0748C158.451 16.7086 159.994 18.1403 160.901 19.9562C162.47 23.0973 161.946 26.6795 160.905 29.8903C161.666 29.4635 162.447 29.0748 163.246 28.7241C165.854 27.5959 169.006 27.1852 171.692 28.2874C171.924 28.38 172.15 28.4841 172.371 28.5999C172.592 28.7157 172.807 28.8424 173.015 28.9802C173.223 29.1179 173.423 29.266 173.617 29.4245C173.809 29.5833 173.993 29.7515 174.169 29.929C174.344 30.1064 174.51 30.2923 174.667 30.4867C174.823 30.6811 174.969 30.883 175.105 31.0926C175.24 31.3022 175.365 31.5183 175.478 31.741C175.591 31.9632 175.693 32.1908 175.783 32.4236C177.051 35.6674 176.06 39.0373 174.723 42.0719C175.534 41.8606 176.354 41.6952 177.184 41.5756C179.837 41.1903 182.775 41.5902 184.947 43.2584C186.542 44.4841 187.532 46.279 187.777 48.2717C188.238 52.013 186.277 55.0723 184.086 57.8832C184.606 57.8596 185.126 57.8391 185.646 57.8217C188.855 57.7184 192.13 58.1602 194.548 60.485C194.727 60.6544 194.897 60.8325 195.057 61.0193C195.218 61.206 195.369 61.4002 195.51 61.6017C195.651 61.8037 195.781 62.0122 195.901 62.2273C196.021 62.4428 196.13 62.6635 196.227 62.8896C196.325 63.1156 196.411 63.3461 196.485 63.5811C196.559 63.8156 196.621 64.0535 196.672 64.2947C196.722 64.536 196.76 64.7789 196.785 65.0236C196.81 65.2687 196.823 65.5144 196.824 65.7607C196.834 69.4196 194.517 72.0828 192.065 74.4995C193.081 74.6307 194.075 74.8056 195.062 75.0845C197.545 75.7848 199.935 77.292 201.189 79.6066C202.147 81.3749 202.317 83.4259 201.747 85.3469C200.673 88.9602 197.719 90.9991 194.566 92.6825C197.651 93.6174 200.713 94.8476 202.622 97.6014C203.748 99.2271 204.254 101.328 203.839 103.279C203.311 105.753 201.548 107.866 199.48 109.248C197.171 110.791 194.399 111.391 191.671 110.838C188.418 110.178 186.195 108.121 184.398 105.439C183.528 106.77 182.525 107.965 181.247 108.925C180.973 109.135 180.69 109.33 180.397 109.511C180.104 109.692 179.802 109.858 179.492 110.009C179.183 110.159 178.866 110.294 178.542 110.412C178.219 110.531 177.891 110.633 177.557 110.718C177.223 110.804 176.886 110.872 176.545 110.924C176.205 110.975 175.862 111.01 175.519 111.027C175.174 111.043 174.83 111.043 174.486 111.025C174.142 111.007 173.8 110.972 173.459 110.92C169.953 110.364 167.652 108.258 165.633 105.489C164.74 106.84 163.638 108.113 162.315 109.06C160.037 110.692 157.23 111.377 154.463 110.87C151.094 110.253 148.876 108.19 146.968 105.478C146.02 106.83 144.957 108.084 143.607 109.05C141.364 110.653 138.602 111.374 135.87 110.907C132.42 110.316 130.18 108.244 128.238 105.471C127.136 106.982 126.014 108.309 124.438 109.345C124.153 109.533 123.858 109.706 123.555 109.864C123.252 110.022 122.942 110.165 122.625 110.293C122.308 110.42 121.985 110.531 121.657 110.626C121.329 110.721 120.997 110.8 120.66 110.862C120.324 110.923 119.986 110.968 119.645 110.997C119.304 111.025 118.963 111.036 118.622 111.03C118.28 111.024 117.939 111.001 117.6 110.961C117.26 110.922 116.924 110.865 116.59 110.791C113.408 110.079 111.226 108.091 109.51 105.412C108.31 107.095 107.167 108.488 105.377 109.567C105.086 109.743 104.786 109.905 104.478 110.052C104.17 110.199 103.855 110.33 103.534 110.445C103.213 110.56 102.887 110.659 102.556 110.741C102.226 110.824 101.891 110.889 101.554 110.938C101.216 110.987 100.877 111.019 100.536 111.033C100.195 111.048 99.8547 111.046 99.5142 111.027C99.1736 111.007 98.835 110.971 98.4982 110.917C98.1614 110.864 97.8281 110.793 97.4981 110.706C94.2556 109.847 92.0823 107.611 90.435 104.794C89.6745 105.144 88.9063 105.531 88.1977 105.978C86.006 107.362 84.1883 109.56 83.6268 112.127C83.1755 114.192 83.5513 116.461 84.7194 118.231C85.8058 119.876 87.5278 120.953 89.4501 121.339C95.037 122.459 100.135 118.406 104.536 115.549C106.12 122.46 106.708 129.4 110.545 135.576C115.884 144.17 125.172 149.377 134.826 151.623C147.246 154.513 161.713 152.937 172.629 146.1C179.355 141.888 184.377 135.75 186.635 128.086C187.7 124.47 188.285 120.639 189.124 116.956C193.118 119.553 196.962 122.204 201.459 123.87C198.504 127.272 195.538 128.278 191.2 128.924C191.81 129.365 192.395 129.862 192.952 130.368C195.032 132.263 196.739 135.011 196.832 137.888C196.841 138.134 196.838 138.38 196.822 138.625C196.807 138.871 196.78 139.115 196.74 139.358C196.7 139.6 196.648 139.841 196.584 140.079C196.52 140.316 196.444 140.55 196.357 140.78C196.27 141.009 196.171 141.234 196.061 141.454C195.951 141.675 195.83 141.889 195.699 142.097C195.567 142.304 195.426 142.505 195.274 142.699C195.122 142.893 194.961 143.079 194.791 143.256C192.348 145.822 189.12 146.212 185.768 146.281L185.559 146.295L185.456 146.545C185.626 146.801 185.791 147.06 185.953 147.322C187.606 150.009 188.907 152.946 188.09 156.161C187.606 158.068 186.315 159.576 184.636 160.553C181.313 162.488 177.618 161.928 174.089 160.97C174.5 161.628 174.863 162.312 175.179 163.021C176.353 165.614 176.849 168.872 175.792 171.585C175.07 173.435 173.641 174.868 171.825 175.658C168.494 177.106 165.155 176.066 161.957 174.826C162.202 175.805 162.362 176.818 162.474 177.82C162.761 180.375 162.227 183.152 160.561 185.169C159.29 186.709 157.484 187.623 155.502 187.805C151.853 188.14 148.795 186.301 146.12 184.03C146.193 184.848 146.229 185.668 146.229 186.49C146.245 189.46 145.573 192.499 143.393 194.657C143.219 194.833 143.037 194.999 142.846 195.155C142.655 195.312 142.456 195.458 142.251 195.595C142.045 195.732 141.833 195.858 141.614 195.972C141.395 196.087 141.171 196.191 140.942 196.284C140.713 196.376 140.48 196.457 140.243 196.525C140.006 196.594 139.766 196.651 139.523 196.695C139.28 196.74 139.035 196.772 138.789 196.791C138.542 196.811 138.296 196.818 138.049 196.813C134.526 196.755 131.787 194.52 129.465 192.099C129.366 193.06 129.221 193.997 128.972 194.932C128.313 197.412 126.823 199.849 124.535 201.123C124.314 201.245 124.087 201.357 123.854 201.457C123.621 201.556 123.384 201.644 123.143 201.72C122.901 201.796 122.656 201.86 122.409 201.912C122.161 201.964 121.911 202.003 121.659 202.03C121.407 202.057 121.155 202.071 120.902 202.072C120.649 202.073 120.396 202.062 120.144 202.039C119.892 202.015 119.642 201.979 119.393 201.93C119.145 201.881 118.899 201.82 118.657 201.746C115.108 200.703 113.025 197.775 111.35 194.684C111.014 195.773 110.644 196.877 110.165 197.911C109.034 200.352 107.073 202.597 104.502 203.543C104.273 203.628 104.042 203.701 103.807 203.762C103.572 203.823 103.334 203.873 103.093 203.911C102.853 203.948 102.612 203.974 102.369 203.988C102.126 204.002 101.884 204.004 101.641 203.993C101.398 203.983 101.156 203.961 100.915 203.927C100.674 203.892 100.436 203.846 100.2 203.788C99.9638 203.73 99.7309 203.66 99.5015 203.579C99.2725 203.498 99.0479 203.406 98.8278 203.302C95.6987 201.851 94.1022 198.855 92.9734 195.763C92.3459 196.805 91.6969 197.809 90.8971 198.73C89.2391 200.64 86.913 202.091 84.3423 202.239C82.3218 202.356 80.3931 201.629 78.8885 200.289C76.2551 197.944 75.3735 194.498 75.2061 191.104C74.4335 192.074 73.6147 193.014 72.6969 193.851C70.7372 195.638 68.1082 196.917 65.4076 196.777C63.3807 196.672 61.5231 195.798 60.1832 194.267C58.0315 191.808 57.5568 188.366 57.7526 185.221C56.9617 185.799 56.1542 186.341 55.2948 186.813C52.9763 188.088 50.1756 188.742 47.5897 187.953C47.3505 187.88 47.1156 187.795 46.8849 187.698C46.6546 187.601 46.4296 187.493 46.2099 187.374C45.9902 187.254 45.7772 187.123 45.571 186.982C45.3649 186.841 45.1663 186.689 44.9753 186.528C44.7847 186.366 44.6026 186.195 44.4289 186.015C44.2557 185.834 44.092 185.646 43.9377 185.45C43.7835 185.253 43.6396 185.048 43.5061 184.837C43.3726 184.625 43.2501 184.408 43.1385 184.184C41.5705 181.1 42.0421 177.4 43.0606 174.229C42.4547 174.538 41.8388 174.826 41.2131 175.093C38.4034 176.302 35.1508 176.906 32.2315 175.701C32.0093 175.612 31.7919 175.511 31.5793 175.4C31.3672 175.289 31.161 175.167 30.9607 175.036C30.7605 174.904 30.5674 174.762 30.3814 174.611C30.1951 174.46 30.017 174.3 29.8472 174.131C29.6769 173.963 29.5155 173.786 29.3629 173.601C29.2104 173.416 29.0676 173.224 28.9345 173.025C28.801 172.826 28.6778 172.62 28.565 172.409C28.4522 172.197 28.3501 171.981 28.2589 171.759C26.912 168.506 27.9274 165.105 29.2317 162.029C28.1296 162.263 27.0211 162.453 25.8967 162.542C23.3463 162.742 20.5912 162.124 18.6359 160.404C17.0971 159.051 16.2706 157.173 16.1717 155.138C15.9993 151.609 17.7587 148.673 20.0303 146.136C18.9306 146.201 17.8278 146.256 16.7257 146.224C13.9243 146.141 11.005 145.238 9.07382 143.116C7.72193 141.629 7.07038 139.736 7.18129 137.735C7.37016 134.325 9.52951 131.705 11.9741 129.529C10.6894 129.353 9.43444 129.159 8.20677 128.728C5.8256 127.89 3.66435 126.305 2.58753 123.969C1.72873 122.105 1.71352 120.042 2.42274 118.128C3.62759 114.878 6.37257 112.804 9.40782 111.38C8.32023 111.034 7.21425 110.672 6.17038 110.21C3.73787 109.133 1.45303 107.174 0.487125 104.645C-0.234136 102.755 -0.144141 100.71 0.688669 98.8734C2.12042 95.719 5.09927 94.1751 8.17065 92.9874C7.6108 92.632 7.06066 92.2623 6.52024 91.8782C4.24618 90.2658 2.27253 87.9696 1.81366 85.1397C1.48536 83.1185 2.02028 81.1227 3.24858 79.4945C5.58095 76.4028 9.1448 75.6055 12.7606 75.0972C12.1674 74.6592 11.6147 74.168 11.0779 73.6629C8.94769 71.6588 7.24087 68.9848 7.19777 65.9768C7.16925 63.9506 7.90889 62.0397 9.3381 60.5959C11.9107 57.9967 15.382 57.7774 18.821 57.785C18.2358 57.0185 17.7061 56.2155 17.2321 55.3759C15.9505 53.119 15.2419 50.367 15.9638 47.8128C16.0327 47.5686 16.114 47.3284 16.2078 47.0922C16.3012 46.8564 16.4062 46.6257 16.5228 46.4001C16.6399 46.1749 16.7681 45.956 16.9076 45.7435C17.0466 45.5314 17.1959 45.3266 17.3556 45.1293C17.5158 44.9324 17.6854 44.744 17.8646 44.564C18.0437 44.384 18.2316 44.2137 18.428 44.0531C18.6245 43.8921 18.8286 43.7415 19.0403 43.6012C19.252 43.4614 19.4702 43.3325 19.695 43.2146C22.9077 41.5002 26.5337 42.0795 29.8636 43.0612C29.3116 42.1904 28.8724 41.1991 28.5003 40.2389C27.5104 37.6835 27.2036 34.6584 28.3482 32.101C28.4467 31.8783 28.5557 31.6611 28.6753 31.4494C28.7953 31.2377 28.9256 31.0326 29.0663 30.834C29.2066 30.6354 29.3564 30.4442 29.5157 30.2604C29.6754 30.0766 29.8438 29.9013 30.0208 29.7344C30.1979 29.5675 30.3827 29.4099 30.5754 29.2616C30.7681 29.1128 30.9677 28.9742 31.1743 28.8458C31.3809 28.7173 31.5935 28.5995 31.8119 28.4921C32.03 28.3848 32.2531 28.2887 32.4812 28.2038C35.6946 26.9869 39.0125 27.9224 42.0034 29.2863C41.7837 28.3124 41.6174 27.3293 41.5046 26.3372C41.213 23.7235 41.7347 20.8885 43.4478 18.8242C44.7522 17.2524 46.6124 16.3359 48.6405 16.1825C52.2253 15.9106 55.2174 17.7524 57.8426 19.9802C57.7406 18.6195 57.6411 17.2619 57.7799 15.8999C58.0499 13.2398 59.0906 10.5234 61.2195 8.80386C62.7901 7.535 64.7371 7.01275 66.7354 7.23014C69.9393 7.57936 72.5239 9.64174 74.476 12.0781C74.6104 10.8479 74.8221 9.65188 75.2061 8.47301C75.9775 6.10705 77.4808 3.897 79.7422 2.74856C81.5999 1.80547 83.7263 1.71927 85.6911 2.37652C89.08 3.50912 91.0942 6.35169 92.6413 9.40152C93.1705 7.60091 93.8449 5.79268 94.8856 4.22213C96.4681 1.83462 98.4982 0.550549 101.281 0.00928554Z" fill="black"/>
<path d="M149.371 115.917C150.209 115.812 150.923 115.779 151.736 116.05C153.257 116.556 154.377 117.594 155.085 119.015C156.146 121.147 156.302 123.84 155.506 126.083C154.762 128.179 153.516 129.412 151.518 130.343C150.776 130.408 150.071 130.417 149.351 130.188C147.898 129.726 146.729 128.651 146.023 127.316C144.934 125.257 144.773 122.636 145.456 120.426C146.128 118.253 147.403 116.983 149.371 115.917Z" fill="black"/>
<path d="M170.551 117.051C171.088 116.999 171.688 116.982 172.222 117.068C173.481 117.271 174.651 118.279 175.293 119.34C176.289 120.987 176.464 123.223 175.975 125.061C175.478 126.932 174.483 128.119 172.82 129.086C172.217 129.164 171.577 129.213 170.973 129.114C169.828 128.926 168.705 128.026 168.087 127.074C167.02 125.428 166.774 123.202 167.259 121.322C167.769 119.346 168.81 118.093 170.551 117.051Z" fill="black"/>
<path d="M294.591 93.6818C294.227 90.0151 292.667 87.1667 289.909 85.1364C287.152 83.1061 283.409 82.0909 278.682 82.0909C275.47 82.0909 272.758 82.5455 270.545 83.4545C268.333 84.3333 266.636 85.5606 265.455 87.1364C264.303 88.7121 263.727 90.5 263.727 92.5C263.667 94.1667 264.015 95.6212 264.773 96.8636C265.561 98.1061 266.636 99.1818 268 100.091C269.364 100.97 270.939 101.742 272.727 102.409C274.515 103.045 276.424 103.591 278.455 104.045L286.818 106.045C290.879 106.955 294.606 108.167 298 109.682C301.394 111.197 304.333 113.061 306.818 115.273C309.303 117.485 311.227 120.091 312.591 123.091C313.985 126.091 314.697 129.53 314.727 133.409C314.697 139.106 313.242 144.045 310.364 148.227C307.515 152.379 303.394 155.606 298 157.909C292.636 160.182 286.167 161.318 278.591 161.318C271.076 161.318 264.53 160.167 258.955 157.864C253.409 155.561 249.076 152.152 245.955 147.636C242.864 143.091 241.242 137.47 241.091 130.773H260.136C260.348 133.894 261.242 136.5 262.818 138.591C264.424 140.652 266.561 142.212 269.227 143.273C271.924 144.303 274.97 144.818 278.364 144.818C281.697 144.818 284.591 144.333 287.045 143.364C289.53 142.394 291.455 141.045 292.818 139.318C294.182 137.591 294.864 135.606 294.864 133.364C294.864 131.273 294.242 129.515 293 128.091C291.788 126.667 290 125.455 287.636 124.455C285.303 123.455 282.439 122.545 279.045 121.727L268.909 119.182C261.061 117.273 254.864 114.288 250.318 110.227C245.773 106.167 243.515 100.697 243.545 93.8182C243.515 88.1818 245.015 83.2576 248.045 79.0455C251.106 74.8333 255.303 71.5455 260.636 69.1818C265.97 66.8182 272.03 65.6364 278.818 65.6364C285.727 65.6364 291.758 66.8182 296.909 69.1818C302.091 71.5455 306.121 74.8333 309 79.0455C311.879 83.2576 313.364 88.1364 313.455 93.6818H294.591ZM359.148 161.364C352.087 161.364 345.981 159.864 340.83 156.864C335.708 153.833 331.754 149.621 328.966 144.227C326.178 138.803 324.784 132.515 324.784 125.364C324.784 118.152 326.178 111.848 328.966 106.455C331.754 101.03 335.708 96.8182 340.83 93.8182C345.981 90.7879 352.087 89.2727 359.148 89.2727C366.208 89.2727 372.299 90.7879 377.42 93.8182C382.572 96.8182 386.542 101.03 389.33 106.455C392.117 111.848 393.511 118.152 393.511 125.364C393.511 132.515 392.117 138.803 389.33 144.227C386.542 149.621 382.572 153.833 377.42 156.864C372.299 159.864 366.208 161.364 359.148 161.364ZM359.239 146.364C362.451 146.364 365.133 145.455 367.284 143.636C369.436 141.788 371.057 139.273 372.148 136.091C373.269 132.909 373.83 129.288 373.83 125.227C373.83 121.167 373.269 117.545 372.148 114.364C371.057 111.182 369.436 108.667 367.284 106.818C365.133 104.97 362.451 104.045 359.239 104.045C355.996 104.045 353.269 104.97 351.057 106.818C348.875 108.667 347.223 111.182 346.102 114.364C345.011 117.545 344.466 121.167 344.466 125.227C344.466 129.288 345.011 132.909 346.102 136.091C347.223 139.273 348.875 141.788 351.057 143.636C353.269 145.455 355.996 146.364 359.239 146.364ZM443.648 90.1818V104.727H400.557V90.1818H443.648ZM410.42 160V85.1364C410.42 80.0758 411.405 75.8788 413.375 72.5454C415.375 69.2121 418.102 66.7121 421.557 65.0454C425.011 63.3788 428.936 62.5454 433.33 62.5454C436.299 62.5454 439.011 62.7727 441.466 63.2273C443.951 63.6818 445.799 64.0909 447.011 64.4545L443.557 79C442.799 78.7576 441.86 78.5303 440.739 78.3182C439.648 78.1061 438.527 78 437.375 78C434.527 78 432.542 78.6667 431.42 80C430.299 81.303 429.739 83.1364 429.739 85.5V160H410.42ZM492.614 90.1818V104.727H450.568V90.1818H492.614ZM460.114 73.4545H479.477V138.545C479.477 140.333 479.75 141.727 480.295 142.727C480.841 143.697 481.598 144.379 482.568 144.773C483.568 145.167 484.72 145.364 486.023 145.364C486.932 145.364 487.841 145.288 488.75 145.136C489.659 144.955 490.356 144.818 490.841 144.727L493.886 159.136C492.917 159.439 491.553 159.788 489.795 160.182C488.038 160.606 485.902 160.864 483.386 160.955C478.72 161.136 474.629 160.515 471.114 159.091C467.629 157.667 464.917 155.455 462.977 152.455C461.038 149.455 460.083 145.667 460.114 141.091V73.4545ZM556.091 93.6818C555.727 90.0151 554.167 87.1667 551.409 85.1364C548.652 83.1061 544.909 82.0909 540.182 82.0909C536.97 82.0909 534.258 82.5455 532.045 83.4545C529.833 84.3333 528.136 85.5606 526.955 87.1364C525.803 88.7121 525.227 90.5 525.227 92.5C525.167 94.1667 525.515 95.6212 526.273 96.8636C527.061 98.1061 528.136 99.1818 529.5 100.091C530.864 100.97 532.439 101.742 534.227 102.409C536.015 103.045 537.924 103.591 539.955 104.045L548.318 106.045C552.379 106.955 556.106 108.167 559.5 109.682C562.894 111.197 565.833 113.061 568.318 115.273C570.803 117.485 572.727 120.091 574.091 123.091C575.485 126.091 576.197 129.53 576.227 133.409C576.197 139.106 574.742 144.045 571.864 148.227C569.015 152.379 564.894 155.606 559.5 157.909C554.136 160.182 547.667 161.318 540.091 161.318C532.576 161.318 526.03 160.167 520.455 157.864C514.909 155.561 510.576 152.152 507.455 147.636C504.364 143.091 502.742 137.47 502.591 130.773H521.636C521.848 133.894 522.742 136.5 524.318 138.591C525.924 140.652 528.061 142.212 530.727 143.273C533.424 144.303 536.47 144.818 539.864 144.818C543.197 144.818 546.091 144.333 548.545 143.364C551.03 142.394 552.955 141.045 554.318 139.318C555.682 137.591 556.364 135.606 556.364 133.364C556.364 131.273 555.742 129.515 554.5 128.091C553.288 126.667 551.5 125.455 549.136 124.455C546.803 123.455 543.939 122.545 540.545 121.727L530.409 119.182C522.561 117.273 516.364 114.288 511.818 110.227C507.273 106.167 505.015 100.697 505.045 93.8182C505.015 88.1818 506.515 83.2576 509.545 79.0455C512.606 74.8333 516.803 71.5455 522.136 69.1818C527.47 66.8182 533.53 65.6364 540.318 65.6364C547.227 65.6364 553.258 66.8182 558.409 69.1818C563.591 71.5455 567.621 74.8333 570.5 79.0455C573.379 83.2576 574.864 88.1364 574.955 93.6818H556.091ZM608.466 119.636V160H589.102V66.9091H607.92V102.5H608.739C610.314 98.3788 612.86 95.1515 616.375 92.8182C619.89 90.4545 624.299 89.2727 629.602 89.2727C634.451 89.2727 638.678 90.3333 642.284 92.4545C645.92 94.5455 648.739 97.5606 650.739 101.5C652.769 105.409 653.769 110.091 653.739 115.545V160H634.375V119C634.405 114.697 633.314 111.348 631.102 108.955C628.92 106.561 625.86 105.364 621.92 105.364C619.284 105.364 616.951 105.924 614.92 107.045C612.92 108.167 611.345 109.803 610.193 111.955C609.072 114.076 608.496 116.636 608.466 119.636ZM700.795 161.364C693.614 161.364 687.432 159.909 682.25 157C677.098 154.061 673.129 149.909 670.341 144.545C667.553 139.152 666.159 132.773 666.159 125.409C666.159 118.227 667.553 111.924 670.341 106.5C673.129 101.076 677.053 96.8485 682.114 93.8182C687.205 90.7879 693.174 89.2727 700.023 89.2727C704.629 89.2727 708.917 90.0152 712.886 91.5C716.886 92.9545 720.371 95.1515 723.341 98.0909C726.341 101.03 728.674 104.727 730.341 109.182C732.008 113.606 732.841 118.788 732.841 124.727V130.045H673.886V118.045H714.614C714.614 115.258 714.008 112.788 712.795 110.636C711.583 108.485 709.902 106.803 707.75 105.591C705.629 104.348 703.159 103.727 700.341 103.727C697.402 103.727 694.795 104.409 692.523 105.773C690.28 107.106 688.523 108.909 687.25 111.182C685.977 113.424 685.326 115.924 685.295 118.682V130.091C685.295 133.545 685.932 136.53 687.205 139.045C688.508 141.561 690.341 143.5 692.705 144.864C695.068 146.227 697.871 146.909 701.114 146.909C703.265 146.909 705.235 146.606 707.023 146C708.811 145.394 710.341 144.485 711.614 143.273C712.886 142.061 713.856 140.576 714.523 138.818L732.432 140C731.523 144.303 729.659 148.061 726.841 151.273C724.053 154.455 720.447 156.939 716.023 158.727C711.629 160.485 706.553 161.364 700.795 161.364ZM777.295 161.364C770.114 161.364 763.932 159.909 758.75 157C753.598 154.061 749.629 149.909 746.841 144.545C744.053 139.152 742.659 132.773 742.659 125.409C742.659 118.227 744.053 111.924 746.841 106.5C749.629 101.076 753.553 96.8485 758.614 93.8182C763.705 90.7879 769.674 89.2727 776.523 89.2727C781.129 89.2727 785.417 90.0152 789.386 91.5C793.386 92.9545 796.871 95.1515 799.841 98.0909C802.841 101.03 805.174 104.727 806.841 109.182C808.508 113.606 809.341 118.788 809.341 124.727V130.045H750.386V118.045H791.114C791.114 115.258 790.508 112.788 789.295 110.636C788.083 108.485 786.402 106.803 784.25 105.591C782.129 104.348 779.659 103.727 776.841 103.727C773.902 103.727 771.295 104.409 769.023 105.773C766.78 107.106 765.023 108.909 763.75 111.182C762.477 113.424 761.826 115.924 761.795 118.682V130.091C761.795 133.545 762.432 136.53 763.705 139.045C765.008 141.561 766.841 143.5 769.205 144.864C771.568 146.227 774.371 146.909 777.614 146.909C779.765 146.909 781.735 146.606 783.523 146C785.311 145.394 786.841 144.485 788.114 143.273C789.386 142.061 790.356 140.576 791.023 138.818L808.932 140C808.023 144.303 806.159 148.061 803.341 151.273C800.553 154.455 796.947 156.939 792.523 158.727C788.129 160.485 783.053 161.364 777.295 161.364ZM821.977 186.182V90.1818H841.068V101.909H841.932C842.78 100.03 844.008 98.1212 845.614 96.1818C847.25 94.2121 849.371 92.5758 851.977 91.2727C854.614 89.9394 857.886 89.2727 861.795 89.2727C866.886 89.2727 871.583 90.6061 875.886 93.2727C880.189 95.9091 883.629 99.8939 886.205 105.227C888.78 110.53 890.068 117.182 890.068 125.182C890.068 132.97 888.811 139.545 886.295 144.909C883.811 150.242 880.417 154.288 876.114 157.045C871.841 159.773 867.053 161.136 861.75 161.136C857.992 161.136 854.795 160.515 852.159 159.273C849.553 158.03 847.417 156.47 845.75 154.591C844.083 152.682 842.811 150.758 841.932 148.818H841.341V186.182H821.977ZM840.932 125.091C840.932 129.242 841.508 132.864 842.659 135.955C843.811 139.045 845.477 141.455 847.659 143.182C849.841 144.879 852.492 145.727 855.614 145.727C858.765 145.727 861.432 144.864 863.614 143.136C865.795 141.379 867.447 138.955 868.568 135.864C869.72 132.742 870.295 129.152 870.295 125.091C870.295 121.061 869.735 117.515 868.614 114.455C867.492 111.394 865.841 109 863.659 107.273C861.477 105.545 858.795 104.682 855.614 104.682C852.462 104.682 849.795 105.515 847.614 107.182C845.462 108.848 843.811 111.212 842.659 114.273C841.508 117.333 840.932 120.939 840.932 125.091Z" fill="black"/>
</g>
<defs>
<clipPath id="clip0_21_8">
<rect width="909" height="223" fill="white"/>
</clipPath>
</defs>
</svg>
